<svg width="29" height="26" viewBox="0 0 29 26" fill="none" xmlns="http://www.w3.org/2000/svg">
<path d="M20.75 8.39584H1.25C0.805833 8.39584 0.4375 8.02751 0.4375 7.58334C0.4375 7.13918 0.805833 6.77084 1.25 6.77084H20.75C21.1942 6.77084 21.5625 7.13918 21.5625 7.58334C21.5625 8.02751 21.1942 8.39584 20.75 8.39584Z" fill="white"/>
<path d="M20.75 13.8125H1.25C0.805833 13.8125 0.4375 13.4442 0.4375 13C0.4375 12.5558 0.805833 12.1875 1.25 12.1875H20.75C21.1942 12.1875 21.5625 12.5558 21.5625 13C21.5625 13.4442 21.1942 13.8125 20.75 13.8125Z" fill="white"/>
<path d="M20.75 19.2292H1.25C0.805833 19.2292 0.4375 18.8608 0.4375 18.4167C0.4375 17.9725 0.805833 17.6042 1.25 17.6042H20.75C21.1942 17.6042 21.5625 17.9725 21.5625 18.4167C21.5625 18.8608 21.1942 19.2292 20.75 19.2292Z" fill="white"/>
</svg>
