<svg width="186" height="54" viewBox="0 0 186 54" fill="none" xmlns="http://www.w3.org/2000/svg">
<path d="M8.79729 19.2982C10.3557 14.4361 13.707 5.84619 19.5634 5.10395C20.3678 5.00387 20.3845 3.71955 19.5634 3.82796C12.9278 4.67028 9.34188 13.4104 7.56567 18.9563C7.31432 19.7402 8.55431 20.0822 8.79729 19.2982Z" fill="#4D4D4C"/>
<path d="M10.9587 20.349L11.2687 18.556L4.54932 18.506V50.6141H41.414V18.506L35.0464 18.556L35.3313 20.349H39.6294V48.5958H6.50985V20.3824L10.9587 20.349Z" fill="#019CDD"/>
<path d="M18.6836 31.1991C18.6836 31.1991 12.6596 31.9913 11.7213 28.6721C10.7829 25.3529 12.1402 6.86362 20.5688 6.0213" stroke="#019CDD" stroke-width="1.5079" stroke-miterlimit="10"/>
<path d="M27.5897 31.1991C27.5897 31.1991 33.6137 31.9913 34.5521 28.6721C35.4905 25.3529 34.1332 6.86362 25.7046 6.0213" stroke="#019CDD" stroke-width="1.5079" stroke-miterlimit="10"/>
<path d="M23.0571 8.80679C24.7183 8.80679 26.065 7.429 26.065 5.72941C26.065 4.02983 24.7183 2.65204 23.0571 2.65204C21.396 2.65204 20.0493 4.02983 20.0493 5.72941C20.0493 7.429 21.396 8.80679 23.0571 8.80679Z" fill="#019CDD" stroke="#019CDD" stroke-miterlimit="10"/>
<path d="M18.8931 33.0672C20.1055 33.0672 21.0882 32.0628 21.0882 30.8238C21.0882 29.5848 20.1055 28.5804 18.8931 28.5804C17.6808 28.5804 16.698 29.5848 16.698 30.8238C16.698 32.0628 17.6808 33.0672 18.8931 33.0672Z" fill="#019CDD" stroke="#019CDD" stroke-miterlimit="10"/>
<path d="M27.2715 33.0672C28.4839 33.0672 29.4667 32.0628 29.4667 30.8238C29.4667 29.5848 28.4839 28.5804 27.2715 28.5804C26.0592 28.5804 25.0764 29.5848 25.0764 30.8238C25.0764 32.0628 26.0592 33.0672 27.2715 33.0672Z" fill="#019CDD" stroke="#019CDD" stroke-miterlimit="10"/>
<path d="M14.4694 39.4554C15.4087 39.4554 16.1702 38.6975 16.1702 37.7625C16.1702 36.8275 15.4087 36.0695 14.4694 36.0695C13.53 36.0695 12.7686 36.8275 12.7686 37.7625C12.7686 38.6975 13.53 39.4554 14.4694 39.4554Z" stroke="#4D4D4C" stroke-width="1.1607" stroke-miterlimit="10"/>
<path d="M13.8912 39.4888C13.355 43.692 7.44831 45.9688 4.74211 42.291C3.19212 40.181 3.52726 37.4205 4.53265 35.0604C4.62482 34.8435 4.55779 32.9254 4.55779 32.4C4.55779 32.3249 4.3986 32.5501 4.35671 32.6252C2.39618 36.2113 1.13105 41.6655 5.13589 44.3842C8.90614 46.9362 14.528 44.3175 15.0977 39.789C15.215 38.9884 13.9918 38.6882 13.8912 39.4888Z" fill="#4D4D4C"/>
<path d="M13.1037 18.531H33.2117L33.5301 20.324H12.7686L13.1037 18.531Z" fill="#019CDD"/>
<path d="M65.3076 34.6613H62.52V27.8198H56.7876V34.6613H54V19.1124H56.7876V25.3544H62.52V19.1124H65.3076V34.6613Z" fill="#019CDD"/>
<path d="M77.8517 33.0951L76.1582 34.7737H70.4706L68.5598 32.8628V25.2645L70.4706 23.3537H75.6636L77.5744 25.2645V30.0303H71.1001V31.9412L71.9993 32.8404H74.8768L76.2031 31.5815L77.8517 33.0951ZM71.9993 25.287L71.1001 26.1862V28.1869H75.0416V26.1862L74.1424 25.287H71.9993Z" fill="#019CDD"/>
<path d="M87.2933 23.3537L89.2042 25.2645V34.6613H87.3383L86.7538 33.1102H86.6564L84.8879 34.7662H81.8906L79.9797 32.8554V29.7831L81.8906 27.8723H86.6564V26.1563L85.7872 25.2795H83.1944L81.9505 26.441L80.2495 24.9124L81.8156 23.3462H87.2933V23.3537ZM83.3967 29.8131L82.5275 30.6898V31.9412L83.4267 32.8404H84.6332L86.6564 31.0869V29.8131H83.3967Z" fill="#019CDD"/>
<path d="M92.1116 19.1124H94.6593V34.6688H92.1116V19.1124Z" fill="#019CDD"/>
<path d="M97.8142 25.5118H96.4429V23.4736H97.8142V21.9224L99.725 20.5511H100.347V23.4736H102.55V25.5118H100.347V31.4916L101.246 32.3908H103.179V34.6613H99.725L97.8142 32.7505V25.5118Z" fill="#019CDD"/>
<path d="M114.487 34.6613H111.939V26.2761L111.063 25.3994H109.879L107.855 27.0704V34.6688H105.308V19.1124H107.855V25.0172L109.624 23.3612H112.576L114.487 25.272V34.6613Z" fill="#019CDD"/>
<path d="M121.089 21.338L119.972 22.4545V24.5601L121.089 25.6916H126.042L128.515 28.1645V32.3233L126.065 34.7737H119.028L116.84 32.6006L118.706 30.7797L120.437 32.4357H124.588L125.72 31.3192V29.1536L124.588 28.0371H119.65L117.177 25.5643V21.4504L119.628 19H126.057L128.14 21.0607L126.252 22.9266L124.581 21.338H121.089Z" fill="#019CDD"/>
<path d="M140.032 34.6613H137.484V26.2761L136.608 25.3994H135.424L133.401 27.0704V34.6688H130.853V19.1124H133.401V25.0172L135.169 23.3612H138.121L140.032 25.272V34.6613Z" fill="#019CDD"/>
<path d="M150.388 23.3537L152.299 25.2645V32.8628L150.388 34.7737H144.746L142.835 32.8628V25.2645L144.746 23.3537H150.388ZM146.244 25.3994L145.368 26.2761V31.8512L146.244 32.728H148.882L149.759 31.8512V26.2761L148.882 25.3994H146.244Z" fill="#019CDD"/>
<path d="M162.467 23.3537L164.378 25.2645V32.8629L162.467 34.7737H159.403L157.634 33.1176V39H155.086V23.4661H156.952L157.537 25.0172H157.634L159.403 23.3612H162.467V23.3537ZM160.969 32.728L161.846 31.8512V26.2761L160.969 25.3994H159.665L157.642 27.0704V31.0644L159.665 32.7355H160.969V32.728Z" fill="#019CDD"/>
<path d="M176.353 33.0951L174.659 34.7737H168.972L167.061 32.8628V25.2645L168.972 23.3537H174.165L176.076 25.2645V30.0303H169.601V31.9412L170.501 32.8404H173.378L174.704 31.5815L176.353 33.0951ZM170.508 25.287L169.609 26.1862V28.1869H173.55V26.1862L172.651 25.287H170.508Z" fill="#019CDD"/>
<path d="M181.381 25.0173H181.478L183.134 23.4661H185.45V25.7142H183.307L181.471 27.2653V34.6613H178.923V23.4661H180.789L181.381 25.0173Z" fill="#019CDD"/>
<path d="M55.864 43.9702H54V43H58.7899V43.9702H56.9335V49.0581H55.8564V43.9702H55.864Z" fill="#495955"/>
<path d="M63.4576 43L64.5195 44.0619V47.9885L63.4576 49.0504H60.7074L59.6455 47.9885V44.0619L60.7074 43H63.4576ZM61.3262 43.932L60.7227 44.5279V47.5225L61.3262 48.1184H62.8541L63.4499 47.5225V44.5279L62.8541 43.932H61.3262Z" fill="#495955"/>
<path d="M69.8748 49.0504H66.1697V43H69.7526L70.7533 44.0008V45.0856L69.997 45.8419L70.8832 46.728V48.0497L69.8748 49.0504ZM69.6762 44.4668L69.1414 43.932H67.2468V45.4828H69.1185L69.6762 44.9251V44.4668ZM69.806 47.0107L69.2025 46.4148H67.2545V48.1184H69.2713L69.806 47.5837V47.0107Z" fill="#495955"/>
<path d="M75.864 43L76.9259 44.0619V49.0504H76.1314L75.9022 48.1719H75.8563L74.9167 49.0504H73.236L72.1665 47.9885V46.4836L73.236 45.4217H75.864V44.5279L75.2681 43.932H73.809L73.0985 44.589L72.3651 43.8174L73.236 43H75.864ZM73.8319 46.3537L73.236 46.9572V47.5302L73.8319 48.1261H74.6493L75.8487 47.1024V46.3537H73.8319Z" fill="#495955"/>
<path d="M80.6464 49.0504L79.7068 48.1719V51.4186H78.6296V43H79.4241L79.6533 43.8862H79.7068L80.6464 43H82.3348L83.3966 44.0619V47.9885L82.3348 49.0504H80.6464ZM81.7083 48.1261L82.3118 47.5302V44.5355L81.7083 43.9397H80.9062L79.7144 44.9633V47.1024L80.9062 48.1261H81.7083Z" fill="#495955"/>
<path d="M85.0466 49.0504V43H86.1238V45.3606L86.5134 45.0474H88.3698L89.4393 46.1092V47.9809L88.3698 49.0428H85.0466V49.0504ZM87.7586 45.987H86.1238V48.1261H87.7586L88.3545 47.5302V46.5829L87.7586 45.987ZM90.2949 49.0504V43H91.3721V49.0504H90.2949Z" fill="#495955"/>
<path d="M100.471 50.3644H99.3934V49.058H95.7341V50.3644H94.6646V48.126H95.1076L95.4514 47.7288L96.0397 43.0076H99.8899V48.126H100.478V50.3644H100.471ZM96.9487 43.932L96.5438 47.66L96.1542 48.1184H98.8051V43.932H96.9487Z" fill="#495955"/>
<path d="M101.976 49.0504H100.891V47.9732H101.426L101.769 47.576L102.335 43.0076H106.185V49.058H105.108V43.9396H103.259L102.77 48.1642L101.976 49.0504Z" fill="#495955"/>
<path d="M112.342 43V49.0504H111.265V46.8579H109.944L108.798 49.0504H107.644L108.882 46.7433L107.782 45.6891V44.0619L108.843 43H112.342ZM109.462 45.9412H111.273V43.9397H109.462L108.859 44.5355V45.3377L109.462 45.9412Z" fill="#495955"/>
<path d="M115.887 48.1566L116.62 47.4308L117.346 48.126H118.943L119.539 47.5301V47.0259L118.943 46.4301H117.476V45.4981H118.859L119.416 44.9404V44.5355L118.813 43.9396H117.461L116.773 44.5966L116.047 43.8556L116.911 43.0076H119.432L120.494 44.0695V45.1848L119.783 45.8953L120.616 46.728V47.9961L119.546 49.058H116.788L115.887 48.1566Z" fill="#495955"/>
<path d="M127.094 50.3644H126.017V49.058H122.357V50.3644H121.28V48.126H121.723L122.067 47.7288L122.655 43.0076H126.506V48.126H127.094V50.3644ZM123.572 43.932L123.167 47.66L122.778 48.1184H125.428V43.932H123.572Z" fill="#495955"/>
<path d="M132.128 43L133.19 44.0619V47.9885L132.128 49.0504H129.378L128.316 47.9885V44.0619L129.378 43H132.128ZM129.989 43.932L129.386 44.5279V47.5225L129.989 48.1184H131.517L132.113 47.5225V44.5279L131.517 43.932H129.989Z" fill="#495955"/>
<path d="M136.85 49.0504L135.91 48.1719V51.4186H134.833V43H135.627L135.856 43.8862H135.91L136.85 43H138.538L139.6 44.0619V47.9885L138.538 49.0504H136.85ZM137.911 48.1261L138.515 47.5302V44.5355L137.911 43.9397H137.109L135.918 44.9633V47.1024L137.109 48.1261H137.911Z" fill="#495955"/>
<path d="M145.001 43L146.063 44.0619V47.9885L145.001 49.0504H142.251L141.189 47.9885V44.0619L142.251 43H145.001ZM142.869 43.932L142.266 44.5279V47.5225L142.869 48.1184H144.397L144.993 47.5225V44.5279L144.397 43.932H142.869Z" fill="#495955"/>
<path d="M151.418 49.0504H147.713V43H151.296L152.297 44.0008V45.0856L151.54 45.8419L152.426 46.728V48.0497L151.418 49.0504ZM151.227 44.4668L150.692 43.932H148.798V45.4828H150.669L151.227 44.9251V44.4668ZM151.349 47.0107L150.746 46.4148H148.798V48.1184H150.815L151.349 47.5837V47.0107Z" fill="#495955"/>
<path d="M153.947 49.0504V43H155.024V45.3606L155.413 45.0474H157.392L158.454 46.1092V47.9809L157.392 49.0428H153.947V49.0504ZM156.781 45.987H155.024V48.1261H156.781L157.384 47.5302V46.5829L156.781 45.987Z" fill="#495955"/>
<path d="M164 43V49.0504H162.923V46.8579H161.601L160.455 49.0504H159.302L160.539 46.7433L159.439 45.6891V44.0619L160.501 43H164ZM161.12 45.9412H162.93V43.9397H161.12L160.516 44.5355V45.3377L161.12 45.9412Z" fill="#495955"/>
</svg>
