<svg xmlns="http://www.w3.org/2000/svg" width="18" height="18" viewBox="0 0 18 18" fill="none">
<path d="M1.73864 3.16296C0.676335 4.22527 0.193006 5.87296 1.10951 7.30712C1.86683 8.49219 3.19624 10.2192 5.52566 12.5486C7.85508 14.878 9.58206 16.2074 10.7671 16.9647C12.2013 17.8812 13.849 17.3979 14.9113 16.3356L16.044 15.2029C16.9226 14.3243 16.9226 12.8996 16.044 12.021L14.5584 10.5354C13.897 9.874 12.8743 9.73833 12.0634 10.2044C11.5815 10.4813 10.9739 10.4007 10.5809 10.0077L8.06651 7.49334C7.67355 7.10038 7.59294 6.49272 7.86986 6.0109C8.33592 5.19996 8.20024 4.17723 7.53887 3.51586L6.0533 2.03029C5.17462 1.15161 3.74999 1.15161 2.87132 2.03029L1.73864 3.16296ZM2.37346 6.49939C1.93842 5.81864 2.08685 4.93607 2.7993 4.22362L3.93198 3.09095C4.22487 2.79805 4.69974 2.79805 4.99264 3.09095L6.47821 4.57652C6.6603 4.75861 6.69766 5.04019 6.56934 5.26346C5.95468 6.33296 6.13361 7.68176 7.00585 8.554L9.52025 11.0684C10.3925 11.9406 11.7413 12.1196 12.8108 11.5049C13.0341 11.3766 13.3156 11.4139 13.4977 11.596L14.9833 13.0816C15.2762 13.3745 15.2762 13.8494 14.9833 14.1423L13.8506 15.275C13.1382 15.9874 12.2556 16.1358 11.5749 15.7008C10.5012 15.0146 8.85782 13.7594 6.58632 11.4879C4.31482 9.21643 3.0596 7.57308 2.37346 6.49939ZM10.5 2.24999C10.5 1.83577 10.8358 1.49999 11.25 1.49999C14.1495 1.49999 16.5 3.85049 16.5 6.74999C16.5 7.1642 16.1642 7.49999 15.75 7.49999C15.3358 7.49999 15 7.1642 15 6.74999C15 4.67892 13.3211 2.99999 11.25 2.99999C10.8358 2.99999 10.5 2.6642 10.5 2.24999ZM10.5 5.24999C10.5 4.83577 10.8358 4.49999 11.25 4.49999C12.4926 4.49999 13.5 5.50735 13.5 6.74999C13.5 7.1642 13.1642 7.49999 12.75 7.49999C12.3358 7.49999 12 7.1642 12 6.74999C12 6.33577 11.6642 5.99999 11.25 5.99999C10.8358 5.99999 10.5 5.6642 10.5 5.24999Z" fill="#019CDD"/>
</svg>